REM DIRINDEX 1\2,1\3,1\4,1\5
REM DIRNAME cjc005,folder01,folder02,folder03,folder04
TITLE ""
FILE "P1Q_t_0973-0982.mp3" MP3
  TRACK 01 AUDIO
    TITLE "3:cjc005_3824"
    INDEX 01 00:00:00
  TRACK 02 AUDIO
    TITLE "0:"
    INDEX 01 00:01:09
  TRACK 03 AUDIO
    TITLE "4:cjc005_3825"
    INDEX 01 00:01:36
  TRACK 04 AUDIO
    TITLE "0:"
    INDEX 01 00:03:00
  TRACK 05 AUDIO
    TITLE "5:cjc005_3826"
    INDEX 01 00:03:25
  TRACK 06 AUDIO
    TITLE "0:"
    INDEX 01 00:06:65
  TRACK 07 AUDIO
    TITLE "3:cjc005_3827"
    INDEX 01 00:07:52
  TRACK 08 AUDIO
    TITLE "0:"
    INDEX 01 00:08:72
  TRACK 09 AUDIO
    TITLE "4:cjc005_3828"
    INDEX 01 00:09:20
  TRACK 10 AUDIO
    TITLE "0:"
    INDEX 01 00:11:29
  TRACK 11 AUDIO
    TITLE "5:cjc005_3829"
    INDEX 01 00:11:58
  TRACK 12 AUDIO
    TITLE "0:"
    INDEX 01 00:16:24
  TRACK 13 AUDIO
    TITLE "3:cjc005_3830"
    INDEX 01 00:17:08
  TRACK 14 AUDIO
    TITLE "0:"
    INDEX 01 00:18:21
  TRACK 15 AUDIO
    TITLE "4:cjc005_3831"
    INDEX 01 00:18:54
  TRACK 16 AUDIO
    TITLE "0:"
    INDEX 01 00:20:26
  TRACK 17 AUDIO
    TITLE "5:cjc005_3832"
    INDEX 01 00:20:49
  TRACK 18 AUDIO
    TITLE "0:"
    INDEX 01 00:24:18
  TRACK 19 AUDIO
    TITLE "3:cjc005_3833"
    INDEX 01 00:24:72
  TRACK 20 AUDIO
    TITLE "0:"
    INDEX 01 00:26:09
  TRACK 21 AUDIO
    TITLE "4:cjc005_3834"
    INDEX 01 00:26:34
  TRACK 22 AUDIO
    TITLE "0:"
    INDEX 01 00:27:57
  TRACK 23 AUDIO
    TITLE "5:cjc005_3835"
    INDEX 01 00:28:10
  TRACK 24 AUDIO
    TITLE "0:"
    INDEX 01 00:31:65
  TRACK 25 AUDIO
    TITLE "3:cjc005_3836"
    INDEX 01 00:32:39
  TRACK 26 AUDIO
    TITLE "0:"
    INDEX 01 00:33:54
  TRACK 27 AUDIO
    TITLE "4:cjc005_3837"
    INDEX 01 00:34:04
  TRACK 28 AUDIO
    TITLE "0:"
    INDEX 01 00:35:41
  TRACK 29 AUDIO
    TITLE "5:cjc005_3838"
    INDEX 01 00:35:68
  TRACK 30 AUDIO
    TITLE "0:"
    INDEX 01 00:39:21
  TRACK 31 AUDIO
    TITLE "3:cjc005_3839"
    INDEX 01 00:40:03
  TRACK 32 AUDIO
    TITLE "0:"
    INDEX 01 00:41:42
  TRACK 33 AUDIO
    TITLE "4:cjc005_3840"
    INDEX 01 00:41:73
  TRACK 34 AUDIO
    TITLE "0:"
    INDEX 01 00:43:09
  TRACK 35 AUDIO
    TITLE "5:cjc005_3841"
    INDEX 01 00:43:35
  TRACK 36 AUDIO
    TITLE "0:"
    INDEX 01 00:48:32
  TRACK 37 AUDIO
    TITLE "3:cjc005_3842"
    INDEX 01 00:49:12
  TRACK 38 AUDIO
    TITLE "0:"
    INDEX 01 00:50:27
  TRACK 39 AUDIO
    TITLE "4:cjc005_3843"
    INDEX 01 00:50:52
  TRACK 40 AUDIO
    TITLE "0:"
    INDEX 01 00:51:56
  TRACK 41 AUDIO
    TITLE "5:cjc005_3844"
    INDEX 01 00:52:14
  TRACK 42 AUDIO
    TITLE "0:"
    INDEX 01 00:56:59
  TRACK 43 AUDIO
    TITLE "3:cjc005_3845"
    INDEX 01 00:57:43
  TRACK 44 AUDIO
    TITLE "0:"
    INDEX 01 00:58:54
  TRACK 45 AUDIO
    TITLE "4:cjc005_3846"
    INDEX 01 00:59:08
  TRACK 46 AUDIO
    TITLE "0:"
    INDEX 01 01:00:41
  TRACK 47 AUDIO
    TITLE "5:cjc005_3847"
    INDEX 01 01:00:66
  TRACK 48 AUDIO
    TITLE "0:"
    INDEX 01 01:04:29
  TRACK 49 AUDIO
    TITLE "3:cjc005_3848"
    INDEX 01 01:05:03
  TRACK 50 AUDIO
    TITLE "0:"
    INDEX 01 01:06:18
  TRACK 51 AUDIO
    TITLE "4:cjc005_3849"
    INDEX 01 01:06:45
  TRACK 52 AUDIO
    TITLE "0:"
    INDEX 01 01:07:63
  TRACK 53 AUDIO
    TITLE "5:cjc005_3850"
    INDEX 01 01:08:13
  TRACK 54 AUDIO
    TITLE "0:"
    INDEX 01 01:11:72
  TRACK 55 AUDIO
    TITLE "3:cjc005_3851"
    INDEX 01 01:12:44
  TRACK 56 AUDIO
    TITLE "0:"
    INDEX 01 01:13:57
  TRACK 57 AUDIO
    TITLE "4:cjc005_3852"
    INDEX 01 01:14:12
  TRACK 58 AUDIO
    TITLE "0:"
    INDEX 01 01:15:27
  TRACK 59 AUDIO
    TITLE "5:cjc005_3853"
    INDEX 01 01:15:48
  TRACK 60 AUDIO
    TITLE "0:"
    INDEX 01 01:18:39
